<mxfile host="app.diagrams.net" modified="2024-07-13T05:06:40.525Z" agent="Mozilla/5.0 (X11; Linux x86_64; rv:127.0) Gecko/20100101 Firefox/127.0" version="24.6.5" etag="be6W0BPgjxpNByHxS7qa" type="github">
  <diagram name="Page-1" id="QkX1ZZGdV20zqQigjbYQ">
    <mxGraphModel>
      <root>
        <mxCell id="0" />
        <mxCell id="1" parent="0" />
      </root>
    </mxGraphModel>
  </diagram>
</mxfile>
